# WaveFront *.obj file (generated by Autodesk ATF)

mtllib 41a63ce1-cb3f-4640-b7c9-6bdc750a9280.mtl

g Body1

v 20.000000 10.000000 -50.000000
v 16.891068 6.569270 -50.000000
v 13.202831 3.770651 -50.000000
v 9.061781 1.700126 -50.000000
v 4.609943 0.428707 -50.000000
v 0.000000 -0.000000 -50.000000
v -4.609943 0.428707 -50.000000
v -9.061781 1.700126 -50.000000
v -13.202831 3.770651 -50.000000
v -16.891068 6.569270 -50.000000
v -20.000000 10.000000 -50.000000
v -20.000000 10.000000 50.000000
v 20.000000 10.000000 50.000000
v 16.891068 6.569270 50.000000
v 13.202831 3.770651 50.000000
v 9.061781 1.700126 50.000000
v 4.609943 0.428707 50.000000
v 0.000000 -0.000000 50.000000
v -4.609943 0.428707 50.000000
v -9.061781 1.700126 50.000000
v -13.202831 3.770651 50.000000
v -16.891068 6.569270 50.000000
vt 2.000000 0.500000 0.000000
vt -2.000000 0.500000 0.000000
vt 1.689107 0.156927 0.000000
vt -1.689107 0.156927 0.000000
vt 1.320283 -0.122935 0.000000
vt -1.320283 -0.122935 0.000000
vt 0.906178 -0.329987 0.000000
vt -0.906178 -0.329987 0.000000
vt 0.460994 -0.457129 0.000000
vt -0.460994 -0.457129 0.000000
vt -0.000000 -0.500000 0.000000
vt 4.000000 5.000000 0.000000
vt 0.000000 5.000000 0.000000
vt 4.000000 -5.000000 0.000000
vt 0.000000 -5.000000 0.000000
vt 5.000000 4.636476 0.000000
vt -5.000000 4.636476 0.000000
vt 5.000000 4.172829 0.000000
vt -5.000000 4.172829 0.000000
vt 5.000000 3.709181 0.000000
vt -5.000000 3.709181 0.000000
vt 5.000000 3.245533 0.000000
vt -5.000000 3.245533 0.000000
vt 5.000000 2.781886 0.000000
vt -5.000000 2.781886 0.000000
vt 5.000000 2.318238 0.000000
vt -5.000000 2.318238 0.000000
vt 5.000000 1.854590 0.000000
vt -5.000000 1.854590 0.000000
vt 5.000000 1.390943 0.000000
vt -5.000000 1.390943 0.000000
vt 5.000000 0.927295 0.000000
vt -5.000000 0.927295 0.000000
vt 5.000000 0.463648 0.000000
vt -5.000000 0.463648 0.000000
vt 5.000000 0.000000 0.000000
vt -5.000000 0.000000 0.000000
vt 2.000000 0.500000 0.000000
vt -2.000000 0.500000 0.000000
vt 1.689107 0.156927 0.000000
vt -1.689107 0.156927 0.000000
vt 1.320283 -0.122935 0.000000
vt -1.320283 -0.122935 0.000000
vt 0.906178 -0.329987 0.000000
vt -0.906178 -0.329987 0.000000
vt 0.460994 -0.457129 0.000000
vt -0.460994 -0.457129 0.000000
vt 0.000000 -0.500000 0.000000
vn 0.000000 0.000000 -0.100000
vn 0.000000 0.000000 -0.100000
vn 0.000000 0.000000 -0.100000
vn 0.000000 0.000000 -0.100000
vn 0.000000 0.000000 -0.100000
vn 0.000000 0.000000 -0.100000
vn 0.000000 0.000000 -0.100000
vn 0.000000 0.000000 -0.100000
vn 0.000000 0.000000 -0.100000
vn 0.000000 0.000000 -0.100000
vn 0.000000 0.000000 -0.100000
vn 0.000000 0.100000 0.000000
vn 0.000000 0.100000 0.000000
vn 0.000000 0.100000 0.000000
vn 0.000000 0.100000 0.000000
vn 0.080000 -0.060000 0.000000
vn 0.080000 -0.060000 0.000000
vn 0.067564 -0.073723 0.000000
vn 0.067564 -0.073723 0.000000
vn 0.052811 -0.084917 0.000000
vn 0.052811 -0.084917 0.000000
vn 0.036247 -0.093199 0.000000
vn 0.036247 -0.093199 0.000000
vn 0.018440 -0.098285 0.000000
vn 0.018440 -0.098285 0.000000
vn 0.000000 -0.100000 0.000000
vn 0.000000 -0.100000 0.000000
vn -0.018440 -0.098285 0.000000
vn -0.018440 -0.098285 0.000000
vn -0.036247 -0.093199 0.000000
vn -0.036247 -0.093199 0.000000
vn -0.052811 -0.084917 0.000000
vn -0.052811 -0.084917 0.000000
vn -0.067564 -0.073723 0.000000
vn -0.067564 -0.073723 0.000000
vn -0.080000 -0.060000 0.000000
vn -0.080000 -0.060000 0.000000
vn 0.000000 0.000000 0.100000
vn 0.000000 0.000000 0.100000
vn 0.000000 0.000000 0.100000
vn 0.000000 0.000000 0.100000
vn 0.000000 0.000000 0.100000
vn 0.000000 0.000000 0.100000
vn 0.000000 0.000000 0.100000
vn 0.000000 0.000000 0.100000
vn 0.000000 0.000000 0.100000
vn 0.000000 0.000000 0.100000
vn 0.000000 0.000000 0.100000
usemtl Steel_-_Satin
f 11/1/1 1/2/2 10/3/3
f 10/3/3 1/2/2 2/4/4
f 10/3/3 2/4/4 9/5/5
f 9/5/5 2/4/4 3/6/6
f 9/5/5 3/6/6 8/7/7
f 8/7/7 3/6/6 4/8/8
f 8/7/7 4/8/8 7/9/9
f 7/9/9 4/8/8 5/10/10
f 7/9/9 5/10/10 6/11/11
f 12/12/12 13/13/13 11/14/14
f 11/14/14 13/13/13 1/15/15
f 1/16/16 13/17/17 2/18/18
f 2/18/18 13/17/17 14/19/19
f 2/18/18 14/19/19 3/20/20
f 3/20/20 14/19/19 15/21/21
f 3/20/20 15/21/21 4/22/22
f 4/22/22 15/21/21 16/23/23
f 4/22/22 16/23/23 5/24/24
f 5/24/24 16/23/23 17/25/25
f 5/24/24 17/25/25 6/26/26
f 6/26/26 17/25/25 18/27/27
f 6/26/26 18/27/27 7/28/28
f 7/28/28 18/27/27 19/29/29
f 7/28/28 19/29/29 8/30/30
f 8/30/30 19/29/29 20/31/31
f 8/30/30 20/31/31 9/32/32
f 9/32/32 20/31/31 21/33/33
f 9/32/32 21/33/33 10/34/34
f 10/34/34 21/33/33 22/35/35
f 10/34/34 22/35/35 11/36/36
f 11/36/36 22/35/35 12/37/37
f 13/38/38 12/39/39 14/40/40
f 14/40/40 12/39/39 22/41/41
f 14/40/40 22/41/41 15/42/42
f 15/42/42 22/41/41 21/43/43
f 15/42/42 21/43/43 16/44/44
f 16/44/44 21/43/43 20/45/45
f 16/44/44 20/45/45 17/46/46
f 17/46/46 20/45/45 19/47/47
f 17/46/46 19/47/47 18/48/48

# 22 vertices
# 48 texture params
# 48 normals
# 40 facets

# 1 groups
