# WaveFront *.obj file (generated by Autodesk ATF)

mtllib 0ba2e8bf-8def-4adf-a62e-df9bfa05c004.mtl

g Body2

v 44.440972 5.000000 -50.000000
v 31.874259 2.556257 -50.000000
v 19.176946 0.921511 -50.000000
v 6.401058 0.102460 -50.000000
v -6.401058 0.102460 -50.000000
v -19.176946 0.921511 -50.000000
v -31.874259 2.556257 -50.000000
v -44.440972 5.000000 -50.000000
v -44.440972 5.000000 50.000000
v 44.440972 5.000000 50.000000
v 31.874259 2.556257 50.000000
v 19.176946 0.921511 50.000000
v 6.401058 0.102460 50.000000
v -6.401058 0.102460 50.000000
v -19.176946 0.921511 50.000000
v -31.874259 2.556257 50.000000
vt 4.444097 0.250000 0.000000
vt -4.444097 0.250000 0.000000
vt 3.187426 0.005626 0.000000
vt -3.187426 0.005626 0.000000
vt 1.917695 -0.157849 0.000000
vt -1.917695 -0.157849 0.000000
vt 0.640106 -0.239754 0.000000
vt -0.640106 -0.239754 0.000000
vt 8.888194 5.000000 0.000000
vt 0.000000 5.000000 0.000000
vt 8.888194 -5.000000 0.000000
vt 0.000000 -5.000000 0.000000
vt 5.000000 8.963011 0.000000
vt -5.000000 8.963011 0.000000
vt 5.000000 7.682581 0.000000
vt -5.000000 7.682581 0.000000
vt 5.000000 6.402151 0.000000
vt -5.000000 6.402151 0.000000
vt 5.000000 5.121721 0.000000
vt -5.000000 5.121721 0.000000
vt 5.000000 3.841291 0.000000
vt -5.000000 3.841291 0.000000
vt 5.000000 2.560860 0.000000
vt -5.000000 2.560860 0.000000
vt 5.000000 1.280430 0.000000
vt -5.000000 1.280430 0.000000
vt 5.000000 0.000000 0.000000
vt -5.000000 0.000000 0.000000
vt 4.444097 0.250000 0.000000
vt -4.444097 0.250000 0.000000
vt 3.187426 0.005626 0.000000
vt -3.187426 0.005626 0.000000
vt 1.917695 -0.157849 0.000000
vt -1.917695 -0.157849 0.000000
vt 0.640106 -0.239754 0.000000
vt -0.640106 -0.239754 0.000000
vn 0.000000 0.000000 -0.100000
vn 0.000000 0.000000 -0.100000
vn 0.000000 0.000000 -0.100000
vn 0.000000 0.000000 -0.100000
vn 0.000000 0.000000 -0.100000
vn 0.000000 0.000000 -0.100000
vn 0.000000 0.000000 -0.100000
vn 0.000000 0.000000 -0.100000
vn 0.000000 0.100000 0.000000
vn 0.000000 0.100000 0.000000
vn 0.000000 0.100000 0.000000
vn 0.000000 0.100000 0.000000
vn 0.022220 -0.097500 0.000000
vn 0.022220 -0.097500 0.000000
vn 0.015937 -0.098722 0.000000
vn 0.015937 -0.098722 0.000000
vn 0.009588 -0.099539 0.000000
vn 0.009588 -0.099539 0.000000
vn 0.003201 -0.099949 0.000000
vn 0.003201 -0.099949 0.000000
vn -0.003201 -0.099949 0.000000
vn -0.003201 -0.099949 0.000000
vn -0.009588 -0.099539 0.000000
vn -0.009588 -0.099539 0.000000
vn -0.015937 -0.098722 0.000000
vn -0.015937 -0.098722 0.000000
vn -0.022220 -0.097500 0.000000
vn -0.022220 -0.097500 0.000000
vn 0.000000 0.000000 0.100000
vn 0.000000 0.000000 0.100000
vn 0.000000 0.000000 0.100000
vn 0.000000 0.000000 0.100000
vn 0.000000 0.000000 0.100000
vn 0.000000 0.000000 0.100000
vn 0.000000 0.000000 0.100000
vn 0.000000 0.000000 0.100000
usemtl Steel_-_Satin
f 8/1/1 1/2/2 7/3/3
f 7/3/3 1/2/2 2/4/4
f 7/3/3 2/4/4 6/5/5
f 6/5/5 2/4/4 3/6/6
f 6/5/5 3/6/6 5/7/7
f 5/7/7 3/6/6 4/8/8
f 9/9/9 10/10/10 8/11/11
f 8/11/11 10/10/10 1/12/12
f 1/13/13 10/14/14 2/15/15
f 2/15/15 10/14/14 11/16/16
f 2/15/15 11/16/16 3/17/17
f 3/17/17 11/16/16 12/18/18
f 3/17/17 12/18/18 4/19/19
f 4/19/19 12/18/18 13/20/20
f 4/19/19 13/20/20 5/21/21
f 5/21/21 13/20/20 14/22/22
f 5/21/21 14/22/22 6/23/23
f 6/23/23 14/22/22 15/24/24
f 6/23/23 15/24/24 7/25/25
f 7/25/25 15/24/24 16/26/26
f 7/25/25 16/26/26 8/27/27
f 8/27/27 16/26/26 9/28/28
f 10/29/29 9/30/30 11/31/31
f 11/31/31 9/30/30 16/32/32
f 11/31/31 16/32/32 12/33/33
f 12/33/33 16/32/32 15/34/34
f 12/33/33 15/34/34 13/35/35
f 13/35/35 15/34/34 14/36/36

# 16 vertices
# 36 texture params
# 36 normals
# 28 facets

# 1 groups
