# WaveFront *.obj file (generated by Autodesk ATF)

mtllib c64bf978-1ef1-4108-a224-2be4e27aa717.mtl

g Body1

v 49.749372 5.000000 -50.000000
v 33.289967 2.226357 -50.000000
v 16.682165 0.557210 -50.000000
v -0.000000 -0.000000 -50.000000
v -16.682165 0.557210 -50.000000
v -33.289967 2.226357 -50.000000
v -49.749372 5.000000 -50.000000
v -49.749372 5.000000 50.000000
v 49.749372 5.000000 50.000000
v 33.289967 2.226357 50.000000
v 16.682165 0.557210 50.000000
v -0.000000 -0.000000 50.000000
v -16.682165 0.557210 50.000000
v -33.289967 2.226357 50.000000
vt 4.974937 0.250000 0.000000
vt -4.974937 0.250000 0.000000
vt 3.328997 -0.027364 0.000000
vt -3.328997 -0.027364 0.000000
vt 1.668217 -0.194279 0.000000
vt -1.668217 -0.194279 0.000000
vt 0.000000 -0.250000 0.000000
vt 9.949874 5.000000 0.000000
vt 0.000000 5.000000 0.000000
vt 9.949874 -5.000000 0.000000
vt 0.000000 -5.000000 0.000000
vt 5.000000 10.016742 0.000000
vt -5.000000 10.016742 0.000000
vt 5.000000 8.347285 0.000000
vt -5.000000 8.347285 0.000000
vt 5.000000 6.677828 0.000000
vt -5.000000 6.677828 0.000000
vt 5.000000 5.008371 0.000000
vt -5.000000 5.008371 0.000000
vt 5.000000 3.338914 0.000000
vt -5.000000 3.338914 0.000000
vt 5.000000 1.669457 0.000000
vt -5.000000 1.669457 0.000000
vt 5.000000 -0.000000 0.000000
vt -5.000000 -0.000000 0.000000
vt 4.974937 0.250000 0.000000
vt -4.974937 0.250000 0.000000
vt 3.328997 -0.027364 0.000000
vt -3.328997 -0.027364 0.000000
vt 1.668217 -0.194279 0.000000
vt -1.668217 -0.194279 0.000000
vt -0.000000 -0.250000 0.000000
vn 0.000000 0.000000 -0.100000
vn 0.000000 0.000000 -0.100000
vn 0.000000 0.000000 -0.100000
vn 0.000000 0.000000 -0.100000
vn 0.000000 0.000000 -0.100000
vn 0.000000 0.000000 -0.100000
vn 0.000000 0.000000 -0.100000
vn 0.000000 0.100000 0.000000
vn 0.000000 0.100000 0.000000
vn 0.000000 0.100000 0.000000
vn 0.000000 0.100000 0.000000
vn 0.019900 -0.098000 0.000000
vn 0.019900 -0.098000 0.000000
vn 0.013316 -0.099109 0.000000
vn 0.013316 -0.099109 0.000000
vn 0.006673 -0.099777 0.000000
vn 0.006673 -0.099777 0.000000
vn -0.000000 -0.100000 0.000000
vn -0.000000 -0.100000 0.000000
vn -0.006673 -0.099777 0.000000
vn -0.006673 -0.099777 0.000000
vn -0.013316 -0.099109 0.000000
vn -0.013316 -0.099109 0.000000
vn -0.019900 -0.098000 0.000000
vn -0.019900 -0.098000 0.000000
vn 0.000000 0.000000 0.100000
vn 0.000000 0.000000 0.100000
vn 0.000000 0.000000 0.100000
vn 0.000000 0.000000 0.100000
vn 0.000000 0.000000 0.100000
vn 0.000000 0.000000 0.100000
vn 0.000000 0.000000 0.100000
usemtl Steel_-_Satin
f 7/1/1 1/2/2 6/3/3
f 6/3/3 1/2/2 2/4/4
f 6/3/3 2/4/4 5/5/5
f 5/5/5 2/4/4 3/6/6
f 5/5/5 3/6/6 4/7/7
f 8/8/8 9/9/9 7/10/10
f 7/10/10 9/9/9 1/11/11
f 1/12/12 9/13/13 2/14/14
f 2/14/14 9/13/13 10/15/15
f 2/14/14 10/15/15 3/16/16
f 3/16/16 10/15/15 11/17/17
f 3/16/16 11/17/17 4/18/18
f 4/18/18 11/17/17 12/19/19
f 4/18/18 12/19/19 5/20/20
f 5/20/20 12/19/19 13/21/21
f 5/20/20 13/21/21 6/22/22
f 6/22/22 13/21/21 14/23/23
f 6/22/22 14/23/23 7/24/24
f 7/24/24 14/23/23 8/25/25
f 9/26/26 8/27/27 10/28/28
f 10/28/28 8/27/27 14/29/29
f 10/28/28 14/29/29 11/30/30
f 11/30/30 14/29/29 13/31/31
f 11/30/30 13/31/31 12/32/32

# 14 vertices
# 32 texture params
# 32 normals
# 24 facets

# 1 groups
